<?xml version="1.0" encoding="utf-8"?>
<!-- Generator: Adobe Illustrator 26.4.1, SVG Export Plug-In . SVG Version: 6.00 Build 0)  -->
<svg version="1.1" id="레이어_1" xmlns="http://www.w3.org/2000/svg" xmlns:xlink="http://www.w3.org/1999/xlink" x="0px"
	 y="0px" viewBox="0 0 1308.59 438.26" style="enable-background:new 0 0 1308.59 438.26;" xml:space="preserve">
<style type="text/css">
	.st0{fill-rule:evenodd;clip-rule:evenodd;fill:#004C10;}
	.st1{fill:#FFFFFF;}
	.st2{fill:#004C10;}
	.st3{font-family:'IBMPlexSerif-SemiBold';}
	.st4{font-size:254.8719px;}
</style>
<g id="레이어_3">
	<path class="st0" d="M251.28,86.27H84.29c-23.06,0-41.75,18.69-41.75,41.75V295c0,23.06,18.69,41.75,41.75,41.75h166.99
		c23.06,0,41.75-18.69,41.75-41.75V128.01C293.03,104.96,274.34,86.27,251.28,86.27z"/>
	<path class="st1" d="M199.96,115.69c-3.51,0.88-6.31,2.36-8.39,4.44c-2.09,2.09-3.62,4.99-4.61,8.72
		c-0.99,3.73-1.59,8.45-1.81,14.15l-5.27,94.78c-0.22,4.39,1.2,7.85,4.28,10.37c3.07,2.52,7.13,3.78,12.18,3.78
		c3.73,0,6.75-0.55,9.05-1.65c2.3-1.1,5.1-2.96,8.39-5.59c5.04-4.17,10.86-7.46,17.44-9.87c6.58-2.41,13.71-3.62,21.39-3.62
		c13.16,0,23.42,3.4,30.77,10.2c4.75,4.4,7.96,10.05,9.64,16.93v-56.5c-7.97-3.02-16.94-4.53-26.92-4.53
		c-9.87,0-18.32,1.21-25.34,3.62c-7.02,2.42-13.28,5.27-18.76,8.56l2.63-59.57h68.39v-21.9c0-4.78-0.81-9.36-2.29-13.64h-77.61
		C207.86,114.37,203.47,114.82,199.96,115.69z"/>
	<path class="st1" d="M293.03,295v-9.92c-1.62,6.75-4.67,12.55-9.15,17.38c-7.02,7.57-17.77,11.35-32.25,11.35
		c-11.41,0-21.01-1.1-28.8-3.29c-7.79-2.19-15.2-5.37-22.22-9.54c-5.05-3.07-9.77-4.06-14.15-2.96c-4.39,1.1-8.12,4.17-11.19,9.22
		c-2.85,4.61-3.9,9.49-3.13,14.65c0.77,5.16,3.67,9.38,8.72,12.67c1.2,0.76,2.42,1.49,3.66,2.2h66.76
		C274.34,336.75,293.03,318.06,293.03,295z"/>
</g>
<g id="레이어_2_00000008112697726379143260000013354346490242290824_">
	<text transform="matrix(1.1051 0 0 1 303.0679 334.7892)" class="st2 st3 st4">Óthred</text>
</g>
</svg>
